<?xml version="1.0" standalone="no"?>
<!DOCTYPE svg PUBLIC "-//W3C//DTD SVG 20010904//EN"
 "http://www.w3.org/TR/2001/REC-SVG-20010904/DTD/svg10.dtd">
<svg version="1.0" xmlns="http://www.w3.org/2000/svg"
 width="512.000000pt" height="512.000000pt" viewBox="0 0 512.000000 512.000000"
 preserveAspectRatio="xMidYMid meet">
<metadata>
Created by potrace 1.13, written by Peter Selinger 2001-2015
</metadata>
<g transform="translate(0.000000,512.000000) scale(0.100000,-0.100000)"
fill="#000000" stroke="none">
<path d="M3365 5108 c-11 -6 -47 -33 -81 -58 -330 -252 -1155 -510 -2179 -680
-106 -18 -203 -39 -220 -49 -17 -10 -35 -31 -42 -51 -16 -47 -18 -4135 -2
-4193 7 -26 21 -44 42 -57 31 -20 65 -20 1675 -20 1783 0 1682 -3 1714 53 10
18 14 429 16 2072 2 1128 0 2074 -3 2104 -5 41 -14 61 -35 83 l-28 28 -358 0
-357 0 7 339 c6 287 5 345 -8 375 -23 55 -93 82 -141 54z m-68 -765 c-2 -2
-282 -2 -623 -1 l-619 3 165 44 c214 56 603 185 755 250 66 28 165 75 220 105
l100 53 3 -225 c1 -124 1 -227 -1 -229z m-1686 -2074 c43 -125 81 -244 85
-265 7 -37 8 -34 49 86 23 69 65 189 94 268 l53 142 54 0 54 0 0 -37 c1 -21 9
-164 19 -318 10 -154 17 -283 14 -287 -2 -5 -19 -8 -38 -8 -43 0 -41 -9 -56
305 l-12 251 -57 -166 c-32 -91 -75 -214 -96 -273 l-39 -108 -34 3 -34 3 -53
155 c-30 85 -69 207 -88 270 l-34 115 -6 -85 c-9 -131 -26 -425 -26 -449 0
-18 -6 -21 -41 -21 l-42 0 6 68 c3 37 14 183 23 325 l18 258 54 -3 55 -3 78
-226z m899 196 l0 -35 -130 0 -130 0 0 -105 0 -105 125 0 125 0 0 -30 0 -30
-125 0 -125 0 0 -120 0 -120 140 0 140 0 0 -35 0 -35 -180 0 -180 0 0 325 0
325 170 0 170 0 0 -35z m348 -172 c71 -115 143 -234 159 -267 l30 -59 -5 267
-5 266 42 0 41 0 0 -326 0 -325 -42 3 -42 3 -120 190 c-65 105 -139 226 -162
270 l-44 80 0 -272 0 -273 -35 0 -35 0 0 325 0 325 44 0 44 0 130 -207z m494
-30 c3 -219 5 -241 24 -273 32 -56 80 -83 136 -77 60 5 92 27 120 80 21 39 23
57 26 275 l4 232 40 0 40 0 -4 -242 -3 -243 -28 -52 c-32 -62 -80 -97 -152
-113 -128 -29 -239 32 -276 151 -11 36 -23 474 -14 490 4 5 24 9 45 9 l39 0 3
-237z"/>
</g>
</svg>
